<svg xmlns="http://www.w3.org/2000/svg" xmlns:xlink="http://www.w3.org/1999/xlink" version="1.1" width="256" height="256" viewBox="0 0 256 256" xml:space="preserve">

<defs>
</defs>
<g style="stroke: none; stroke-width: 0; stroke-dasharray: none; stroke-linecap: butt; stroke-linejoin: miter; stroke-miterlimit: 10; fill: none; fill-rule: nonzero; opacity: 1;" transform="translate(1.4065934065934016 1.4065934065934016) scale(2.81 2.81)" >
	<path d="M 85.095 7.591 H 4.905 C 2.201 7.591 0 9.792 0 12.497 v 47.873 v 13.498 c 0 2.705 2.201 4.905 4.905 4.905 h 80.189 c 2.705 0 4.905 -2.2 4.905 -4.905 V 60.369 V 12.497 C 90 9.792 87.8 7.591 85.095 7.591 z M 2 12.497 c 0 -1.602 1.303 -2.905 2.905 -2.905 h 80.189 c 1.602 0 2.905 1.303 2.905 2.905 v 46.873 H 2 V 12.497 z M 88 73.867 c 0 1.602 -1.304 2.905 -2.905 2.905 H 4.905 C 3.303 76.772 2 75.469 2 73.867 V 61.369 h 86 V 73.867 z" style="stroke: none; stroke-width: 1; stroke-dasharray: none; stroke-linecap: butt; stroke-linejoin: miter; stroke-miterlimit: 10; fill: currentColor; fill-rule: nonzero; opacity: 1;" transform=" matrix(1 0 0 1 0 0) " stroke-linecap="round" />
	<path d="M 33.122 70.07 h 49.538 c 0.553 0 1 -0.447 1 -1 s -0.447 -1 -1 -1 H 33.122 c -0.552 0 -1 0.447 -1 1 S 32.569 70.07 33.122 70.07 z" style="stroke: none; stroke-width: 1; stroke-dasharray: none; stroke-linecap: butt; stroke-linejoin: miter; stroke-miterlimit: 10; fill: currentColor; fill-rule: nonzero; opacity: 1;" transform=" matrix(1 0 0 1 0 0) " stroke-linecap="round" />
	<path d="M 7.341 70.07 h 6.396 c 0.552 0 1 -0.447 1 -1 s -0.448 -1 -1 -1 H 7.341 c -0.552 0 -1 0.447 -1 1 S 6.789 70.07 7.341 70.07 z" style="stroke: none; stroke-width: 1; stroke-dasharray: none; stroke-linecap: butt; stroke-linejoin: miter; stroke-miterlimit: 10; fill: currentColor; fill-rule: nonzero; opacity: 1;" transform=" matrix(1 0 0 1 0 0) " stroke-linecap="round" />
	<path d="M 18.21 74.114 c 0.161 0.1 0.343 0.149 0.526 0.149 c 0.153 0 0.306 -0.035 0.447 -0.105 l 8.385 -4.193 c 0.339 -0.17 0.553 -0.516 0.553 -0.895 s -0.214 -0.725 -0.553 -0.895 l -8.385 -4.192 c -0.31 -0.154 -0.678 -0.139 -0.973 0.044 c -0.294 0.183 -0.474 0.504 -0.474 0.851 v 8.386 C 17.736 73.61 17.916 73.933 18.21 74.114 z M 19.736 66.496 l 5.149 2.574 l -5.149 2.575 V 66.496 z" style="stroke: none; stroke-width: 1; stroke-dasharray: none; stroke-linecap: butt; stroke-linejoin: miter; stroke-miterlimit: 10; fill: currentColor; fill-rule: nonzero; opacity: 1;" transform=" matrix(1 0 0 1 0 0) " stroke-linecap="round" />
	<path d="M 48.609 18.805 l -8.662 -4.536 c -0.612 -0.322 -1.331 -0.255 -1.875 0.17 c -0.544 0.426 -0.78 1.107 -0.616 1.779 l 0.715 2.93 l -2.967 5.666 c -0.17 0.324 -0.52 0.505 -0.88 0.458 c -6.184 -0.867 -12.136 2.352 -14.801 8.016 c -3.039 6.457 -0.647 14.416 5.446 18.12 c 2.269 1.379 4.792 2.084 7.355 2.084 c 1.273 0 2.557 -0.175 3.822 -0.526 c 3.76 -1.045 6.954 -3.626 8.764 -7.082 c 2.778 -5.307 1.909 -11.822 -2.162 -16.213 c -0.232 -0.25 -0.274 -0.638 -0.104 -0.963 l 2.966 -5.664 l 2.816 -1.082 c 0.645 -0.247 1.07 -0.829 1.11 -1.519 S 49.222 19.125 48.609 18.805 z M 44.189 21.447 l -3.316 6.333 c -0.563 1.074 -0.398 2.38 0.408 3.251 c 3.497 3.771 4.244 9.367 1.857 13.925 c -1.577 3.011 -4.25 5.171 -7.528 6.083 c -3.275 0.908 -6.685 0.435 -9.602 -1.34 c -5.231 -3.181 -7.285 -10.015 -4.675 -15.56 c 2.041 -4.337 6.323 -7.007 10.993 -7.007 c 0.568 0 1.143 0.04 1.72 0.121 c 1.19 0.165 2.369 -0.439 2.93 -1.51 l 3.317 -6.335 l -0.755 -3.095 l 7.625 3.992 L 44.189 21.447 z" style="stroke: none; stroke-width: 1; stroke-dasharray: none; stroke-linecap: butt; stroke-linejoin: miter; stroke-miterlimit: 10; fill: currentColor; fill-rule: nonzero; opacity: 1;" transform=" matrix(1 0 0 1 0 0) " stroke-linecap="round" />
	<path d="M 28.42 30.648 c -1.041 0.447 -1.983 1.066 -2.799 1.842 c -0.4 0.38 -0.417 1.013 -0.036 1.414 c 0.381 0.402 1.015 0.417 1.414 0.036 c 0.644 -0.611 1.387 -1.101 2.21 -1.454 c 3.797 -1.629 8.21 0.135 9.838 3.931 c 0.163 0.379 0.532 0.606 0.919 0.606 c 0.131 0 0.265 -0.026 0.394 -0.082 c 0.507 -0.218 0.742 -0.806 0.524 -1.313 C 38.821 30.818 33.229 28.584 28.42 30.648 z" style="stroke: none; stroke-width: 1; stroke-dasharray: none; stroke-linecap: butt; stroke-linejoin: miter; stroke-miterlimit: 10; fill: currentColor; fill-rule: nonzero; opacity: 1;" transform=" matrix(1 0 0 1 0 0) " stroke-linecap="round" />
	<path d="M 55.813 29.212 c 0.189 0.27 0.497 0.427 0.82 0.427 c 0.051 0 0.103 -0.004 0.153 -0.012 c 0.377 -0.059 0.688 -0.327 0.802 -0.691 l 3.378 -10.867 h 7.833 c 0.553 0 1 -0.448 1 -1 s -0.447 -1 -1 -1 h -8.569 c -0.438 0 -0.825 0.285 -0.955 0.703 l -2.99 9.621 l -2.271 -3.251 c -0.316 -0.453 -0.94 -0.563 -1.393 -0.247 c -0.453 0.316 -0.563 0.939 -0.248 1.393 L 55.813 29.212 z" style="stroke: none; stroke-width: 1; stroke-dasharray: none; stroke-linecap: butt; stroke-linejoin: miter; stroke-miterlimit: 10; fill: currentColor; fill-rule: nonzero; opacity: 1;" transform=" matrix(1 0 0 1 0 0) " stroke-linecap="round" />
	<path d="M 67.613 22.121 c -0.405 -0.376 -1.037 -0.353 -1.413 0.054 l -1.875 2.023 l -1.875 -2.023 c -0.376 -0.406 -1.009 -0.43 -1.413 -0.054 c -0.405 0.375 -0.429 1.008 -0.054 1.413 l 1.978 2.135 l -1.978 2.135 c -0.375 0.405 -0.352 1.038 0.054 1.413 c 0.192 0.178 0.437 0.267 0.68 0.267 c 0.269 0 0.536 -0.107 0.733 -0.32 l 1.875 -2.023 l 1.875 2.023 c 0.197 0.213 0.465 0.32 0.733 0.32 c 0.243 0 0.487 -0.088 0.68 -0.267 c 0.405 -0.375 0.429 -1.008 0.054 -1.413 l -1.978 -2.135 l 1.978 -2.135 C 68.042 23.129 68.019 22.497 67.613 22.121 z" style="stroke: none; stroke-width: 1; stroke-dasharray: none; stroke-linecap: butt; stroke-linejoin: miter; stroke-miterlimit: 10; fill: currentColor; fill-rule: nonzero; opacity: 1;" transform=" matrix(1 0 0 1 0 0) " stroke-linecap="round" />
	<path d="M 70.849 33.928 c -1.965 -1.965 -5.83 -0.717 -9.574 1.863 c -1.159 -0.801 -2.313 -1.466 -3.415 -1.945 c -2.739 -1.19 -4.933 -1.163 -6.178 0.083 c -1.245 1.244 -1.274 3.438 -0.083 6.178 c 0.48 1.102 1.144 2.256 1.946 3.416 c -2.579 3.745 -3.826 7.61 -1.863 9.573 c 0.668 0.668 1.555 0.965 2.583 0.965 c 1.998 0 4.526 -1.123 7 -2.828 c 2.474 1.706 5.002 2.828 7 2.828 c 1.028 0 1.916 -0.298 2.584 -0.965 c 1.964 -1.965 0.713 -5.836 -1.871 -9.583 C 71.562 39.764 72.814 35.893 70.849 33.928 z M 53.433 39.309 c -0.805 -1.85 -0.934 -3.37 -0.337 -3.966 c 0.249 -0.249 0.657 -0.371 1.185 -0.371 c 0.736 0 1.702 0.24 2.781 0.708 c 0.812 0.353 1.659 0.818 2.517 1.375 c -0.872 0.701 -1.721 1.458 -2.517 2.254 s -1.552 1.646 -2.254 2.518 C 54.251 40.967 53.786 40.121 53.433 39.309 z M 61.263 38.257 c 0.943 0.732 1.882 1.557 2.791 2.466 c 0.948 0.948 1.771 1.885 2.474 2.789 c -0.703 0.904 -1.526 1.841 -2.474 2.789 c -0.948 0.948 -1.885 1.771 -2.789 2.474 c -0.904 -0.703 -1.841 -1.526 -2.789 -2.474 c -0.91 -0.91 -1.737 -1.851 -2.469 -2.795 c 0.702 -0.902 1.523 -1.837 2.469 -2.783 C 59.424 39.774 60.359 38.96 61.263 38.257 z M 53.096 51.682 c -0.807 -0.807 -0.34 -3.328 1.705 -6.483 c 0.69 0.853 1.443 1.699 2.261 2.516 c 0.797 0.797 1.647 1.556 2.521 2.259 C 56.426 52.021 53.905 52.491 53.096 51.682 z M 69.435 51.682 c -0.809 0.805 -3.332 0.337 -6.487 -1.709 c 0.873 -0.702 1.723 -1.461 2.52 -2.258 c 0.797 -0.797 1.555 -1.648 2.258 -2.522 C 69.773 48.351 70.242 50.874 69.435 51.682 z M 67.725 41.831 c -0.702 -0.874 -1.46 -1.725 -2.258 -2.522 c -0.817 -0.816 -1.661 -1.569 -2.513 -2.258 c 2.187 -1.416 4.072 -2.083 5.288 -2.083 c 0.537 0 0.944 0.127 1.191 0.375 C 70.242 36.15 69.773 38.673 67.725 41.831 z" style="stroke: none; stroke-width: 1; stroke-dasharray: none; stroke-linecap: butt; stroke-linejoin: miter; stroke-miterlimit: 10; fill: currentColor; fill-rule: nonzero; opacity: 1;" transform=" matrix(1 0 0 1 0 0) " stroke-linecap="round" />
	<path d="M 61.265 45.011 c 0.384 0 0.769 -0.146 1.061 -0.438 c 0.585 -0.585 0.585 -1.536 0 -2.121 c -0.584 -0.585 -1.537 -0.585 -2.121 0 c -0.585 0.585 -0.585 1.536 0 2.121 C 60.496 44.865 60.881 45.011 61.265 45.011 z" style="stroke: none; stroke-width: 1; stroke-dasharray: none; stroke-linecap: butt; stroke-linejoin: miter; stroke-miterlimit: 10; fill: currentColor; fill-rule: nonzero; opacity: 1;" transform=" matrix(1 0 0 1 0 0) " stroke-linecap="round" />
</g>
</svg>